<svg xmlns="http://www.w3.org/2000/svg" viewBox="0 0 1911.82 1075.4"><defs><style>.cls-1,.cls-3{fill:#fff;}.cls-2{fill:#437dbf;}.cls-3{font-size:328.53px;font-family:Montserrat-Thin, Montserrat;font-weight:200;}.cls-4{letter-spacing:-0.01em;}.cls-5{letter-spacing:0em;}.cls-6{letter-spacing:-0.02em;}.cls-7{letter-spacing:0em;}</style></defs><title>Logo Artica SVG-09</title><g id="Camada_2" data-name="Camada 2"><polygon class="cls-1" points="721.99 391.79 618.6 114.52 591.11 113.47 357.72 617.37 385.21 618.43 603.75 142.72 695.75 391.79 721.99 391.79"/><polygon class="cls-2" points="603.46 335.11 706.86 612.38 734.34 613.43 967.73 109.52 940.24 108.47 721.7 584.17 629.7 335.11 603.46 335.11"/><polygon class="cls-2" points="1307.98 335.11 1204.59 612.38 1177.1 613.43 943.71 109.52 971.2 108.47 1189.74 584.17 1281.74 335.11 1307.98 335.11"/><polygon class="cls-1" points="1189.45 391.79 1292.85 114.52 1320.33 113.47 1553.72 617.37 1526.23 618.43 1307.69 142.72 1215.69 391.79 1189.45 391.79"/><text class="cls-3" transform="translate(358.44 957.38) scale(1.01 1)">A<tspan class="cls-4" x="226.03" y="0">R</tspan><tspan class="cls-5" x="457.97" y="0">TI</tspan><tspan class="cls-6" x="731.96" y="0">C</tspan><tspan class="cls-7" x="958.97" y="0">A</tspan></text></g></svg>